<?xml version="1.0" encoding="UTF-8" standalone="no"?>
<!-- Created with Inkscape (http://www.inkscape.org/) -->

<svg
   width="17.208616mm"
   height="3.0051599mm"
   viewBox="0 0 17.208616 3.0051599"
   version="1.1"
   id="svg72"
   inkscape:export-filename="Rastergrafik.svg"
   inkscape:export-xdpi="96"
   inkscape:export-ydpi="96"
   xmlns:inkscape="http://www.inkscape.org/namespaces/inkscape"
   xmlns:sodipodi="http://sodipodi.sourceforge.net/DTD/sodipodi-0.dtd"
   xmlns="http://www.w3.org/2000/svg"
   xmlns:svg="http://www.w3.org/2000/svg">
  <sodipodi:namedview
     id="namedview74"
     pagecolor="#ffffff"
     bordercolor="#000000"
     borderopacity="0.25"
     inkscape:showpageshadow="2"
     inkscape:pageopacity="0.0"
     inkscape:pagecheckerboard="0"
     inkscape:deskcolor="#d1d1d1"
     inkscape:document-units="mm"
     showgrid="false" />
  <defs
     id="defs69" />
  <g
     inkscape:label="Ebene 1"
     inkscape:groupmode="layer"
     id="layer1"
     transform="translate(-6.4498555,-6.5395597)">
    <g
       aria-label="re:Place"
       transform="translate(-0.49530829,-0.19136911)"
       id="text130"
       style="font-size:3.88056px;white-space:pre;inline-size:57.3147;stroke-width:0.264583">
      <path
         d="m 8.4875346,8.2012974 h -0.060634 q -0.04358,-0.015159 -0.1402155,-0.022738 -0.096635,-0.00758 -0.1610584,-0.00758 -0.1459,0 -0.2576935,0.018948 -0.1117934,0.018948 -0.2406402,0.064423 V 9.679245 H 6.9451637 V 7.5513794 h 0.6821296 v 0.3126427 q 0.2254818,-0.19327 0.3922246,-0.2557986 0.1667428,-0.064423 0.3069584,-0.064423 0.036001,0 0.081477,0.00189 0.045475,0.00189 0.079582,0.00568 z"
         style="font-weight:bold;-inkscape-font-specification:'sans-serif Bold';fill:#004b86"
         id="path3676" />
      <path
         d="M 10.969729,8.7413167 H 9.4084097 q 0.015158,0.2501142 0.1894804,0.3827505 0.1762169,0.1326364 0.5172819,0.1326364 0.216008,0 0.418752,-0.077687 0.202744,-0.077687 0.320222,-0.1667428 h 0.07579 v 0.5475985 q -0.231166,0.092845 -0.435805,0.1345311 -0.204639,0.041686 -0.452859,0.041686 -0.6404436,0 -0.9815084,-0.2880103 -0.3410648,-0.2880103 -0.3410648,-0.8204504 0,-0.5267557 0.3221168,-0.833714 0.3240116,-0.3088532 0.8867685,-0.3088532 0.5191769,0 0.7806599,0.2633779 0.261483,0.261483 0.261483,0.7541322 z M 10.291389,8.3415129 Q 10.285704,8.1274 10.18528,8.0193961 10.084855,7.9113923 9.8726368,7.9113923 q -0.1970597,0 -0.3240116,0.1023194 -0.1269519,0.1023195 -0.1421103,0.3278012 z"
         style="font-weight:bold;-inkscape-font-specification:'sans-serif Bold';fill:#004b86"
         id="path3678" />
      <path
         d="M 12.26388,8.2960376 H 11.555223 V 7.5513794 h 0.708657 z m 0,1.3832074 H 11.555223 V 8.9345868 h 0.708657 z"
         style="font-weight:bold;-inkscape-font-specification:'sans-serif Bold';fill:#999999"
         id="path3680" />
      <path
         d="m 15.378939,7.7484391 q 0,0.1894804 -0.06632,0.3713817 -0.06632,0.1800064 -0.189481,0.3031687 -0.168637,0.1667428 -0.377066,0.252009 -0.206533,0.085266 -0.515387,0.085266 H 13.777829 V 9.679245 H 13.050224 V 6.8578809 h 1.197517 q 0.269062,0 0.452858,0.04737 0.185691,0.045475 0.327801,0.1383207 0.170533,0.1117935 0.259588,0.2861155 0.09095,0.1743221 0.09095,0.4187519 z m -0.752237,0.017053 q 0,-0.1193727 -0.06442,-0.2046389 -0.06442,-0.087161 -0.149689,-0.1212675 -0.113689,-0.045475 -0.221692,-0.049265 -0.108004,-0.00568 -0.288011,-0.00568 h -0.125057 v 0.8450828 h 0.208429 q 0.185691,0 0.305063,-0.022738 0.121268,-0.022738 0.202744,-0.090951 0.07011,-0.060634 0.100425,-0.1440052 0.03221,-0.085266 0.03221,-0.2065337 z"
         style="font-weight:bold;-inkscape-font-specification:'sans-serif Bold';fill:#68ac30"
         id="path3682" />
      <path
         d="M 16.53856,9.679245 H 15.85643 V 6.730929 h 0.68213 z"
         style="font-weight:bold;-inkscape-font-specification:'sans-serif Bold';fill:#68ac30"
         id="path3684" />
      <path
         d="M 18.47126,9.1240672 V 8.6806829 q -0.138321,0.011369 -0.299379,0.032212 -0.161059,0.018948 -0.24443,0.045475 -0.10232,0.032212 -0.157269,0.09474 -0.05305,0.060634 -0.05305,0.1610584 0,0.066318 0.01137,0.1080038 0.01137,0.041686 0.05684,0.079582 0.04358,0.037896 0.104215,0.056844 0.06063,0.017053 0.18948,0.017053 0.10232,0 0.206534,-0.041686 0.106109,-0.041686 0.185691,-0.1098987 z m 0,0.329696 q -0.05495,0.041686 -0.136426,0.1004247 -0.08148,0.058739 -0.153479,0.092845 -0.100425,0.045475 -0.208429,0.066318 -0.108004,0.022738 -0.23685,0.022738 -0.303169,0 -0.507808,-0.1875856 -0.204639,-0.1875857 -0.204639,-0.4793856 0,-0.233061 0.104214,-0.3808557 0.104215,-0.1477948 0.29559,-0.233061 0.18948,-0.085266 0.469911,-0.1212675 0.280431,-0.036001 0.581705,-0.053055 v -0.011369 q 0,-0.1762168 -0.144005,-0.242535 -0.144005,-0.068213 -0.424436,-0.068213 -0.168638,0 -0.360013,0.060634 -0.191375,0.058739 -0.274747,0.090951 h -0.06253 v -0.513492 q 0.108004,-0.028422 0.350539,-0.066318 0.24443,-0.039791 0.488859,-0.039791 0.581705,0 0.839399,0.1800065 0.259588,0.1781116 0.259588,0.5608621 V 9.679245 H 18.47126 Z"
         style="font-weight:bold;-inkscape-font-specification:'sans-serif Bold';fill:#68ac30"
         id="path3686" />
      <path
         d="m 20.883347,9.7360891 q -0.278536,0 -0.509703,-0.066318 -0.229271,-0.066318 -0.399803,-0.2046389 -0.168638,-0.1383208 -0.261483,-0.3486441 -0.09285,-0.2103233 -0.09285,-0.4926492 0,-0.2974843 0.09853,-0.5134921 0.100425,-0.2160077 0.278536,-0.358118 0.172427,-0.1345312 0.397909,-0.1970597 0.225482,-0.062529 0.468017,-0.062529 0.217902,0 0.401699,0.04737 0.183796,0.04737 0.342959,0.1231623 v 0.5817051 h -0.09663 q -0.03979,-0.034107 -0.09663,-0.079582 -0.05495,-0.045475 -0.136426,-0.089056 -0.07769,-0.041686 -0.170532,-0.068213 -0.09285,-0.028422 -0.216008,-0.028422 -0.272852,0 -0.420647,0.1743221 -0.1459,0.1724272 -0.1459,0.4699115 0,0.3069584 0.14969,0.4661219 0.151584,0.1591636 0.428226,0.1591636 0.128847,0 0.231166,-0.028422 0.104214,-0.030317 0.172427,-0.070108 0.06442,-0.037896 0.113689,-0.079582 0.04926,-0.041686 0.09095,-0.081477 h 0.09663 v 0.581705 q -0.161058,0.075792 -0.337275,0.1193727 -0.174322,0.045475 -0.38654,0.045475 z"
         style="font-weight:bold;-inkscape-font-specification:'sans-serif Bold';fill:#68ac30"
         id="path3688" />
      <path
         d="M 24.153779,8.7413167 H 22.59246 q 0.01516,0.2501142 0.189481,0.3827505 0.176217,0.1326364 0.517281,0.1326364 0.216008,0 0.418752,-0.077687 0.202744,-0.077687 0.320222,-0.1667428 h 0.07579 v 0.5475985 q -0.231166,0.092845 -0.435805,0.1345311 -0.204638,0.041686 -0.452858,0.041686 -0.640444,0 -0.981509,-0.2880103 -0.341065,-0.2880103 -0.341065,-0.8204504 0,-0.5267557 0.322117,-0.833714 0.324012,-0.3088532 0.886769,-0.3088532 0.519176,0 0.780659,0.2633779 0.261483,0.261483 0.261483,0.7541322 z M 23.475439,8.3415129 Q 23.469755,8.1274 23.36933,8.0193961 23.268906,7.9113923 23.056687,7.9113923 q -0.197059,0 -0.324011,0.1023194 -0.126952,0.1023195 -0.14211,0.3278012 z"
         style="font-weight:bold;-inkscape-font-specification:'sans-serif Bold';fill:#68ac30"
         id="path3690" />
    </g>
  </g>
</svg>
